<?xml version="1.0" encoding="UTF-8"?>
<svg xmlns="http://www.w3.org/2000/svg" xmlns:xlink="http://www.w3.org/1999/xlink" width="150pt" height="150pt" viewBox="0 0 150 150" version="1.1">
<g id="surface1">
<path style=" stroke:none;fill-rule:nonzero;fill:rgb(89.411765%,23.921569%,18.823529%);fill-opacity:1;" d="M 63.75 72.75 L 42.75 72.75 L 35.25 63.75 L 26.25 53.25 L 63.75 53.25 L 63.75 45.75 L 19.875 45.75 L 4.875 28.125 L 145.125 28.125 L 127.875 45.75 L 86.25 45.75 L 86.25 73.5 L 134.25 73.5 L 114 94.125 L 94.875 94.125 L 63.75 121.125 Z M 63.75 72.75 "/>
<path style=" stroke:none;fill-rule:nonzero;fill:rgb(0%,0%,0%);fill-opacity:1;" d="M 61.875 125.25 L 61.875 74.625 L 42 74.625 L 35.625 67.125 L 33.75 65.25 L 22.125 51.375 L 61.875 51.375 L 61.875 47.25 L 19.125 47.25 L 0.75 26.25 L 150 26.25 L 129 47.25 L 88.125 47.25 L 88.125 71.25 L 138.75 71.25 L 114.75 95.625 L 95.25 95.625 Z M 43.875 70.875 L 66 70.875 L 66 116.625 L 94.125 92.25 L 113.625 92.25 L 130.125 75.375 L 84.375 75.375 L 84.375 43.875 L 127.125 43.875 L 140.625 30 L 9 30 L 20.625 43.5 L 65.625 43.5 L 65.625 55.125 L 30.375 55.125 L 36.75 62.625 L 38.625 64.5 Z M 43.875 70.875 "/>
</g>
</svg>
