<?xml version="1.0" encoding="UTF-8"?>
<svg xmlns="http://www.w3.org/2000/svg" xmlns:xlink="http://www.w3.org/1999/xlink" width="150pt" height="150pt" viewBox="0 0 150 150" version="1.1">
<g id="surface1">
<path style=" stroke:none;fill-rule:nonzero;fill:rgb(100%,34.901961%,0%);fill-opacity:1;" d="M 71.324219 31.519531 C 64.667969 31.519531 58.445312 31.929688 52.199219 32.34375 C 35.570312 33.601562 19.351562 36.507812 3.148438 40.648438 L 17.289062 56.867188 C 28.105469 54.375 38.90625 52.707031 49.726562 51.882812 C 44.738281 71.832031 33.507812 89.304688 17.289062 101.363281 L 17.289062 124.238281 C 44.71875 108.863281 63.84375 81.824219 69.675781 50.644531 C 70.914062 44.417969 71.324219 37.761719 71.324219 31.519531 Z M 71.324219 31.519531 "/>
<path style=" stroke:none;fill-rule:nonzero;fill:rgb(100%,34.901961%,0%);fill-opacity:1;" d="M 147 40.667969 C 130.78125 36.507812 114.5625 33.601562 97.949219 32.363281 C 91.707031 31.949219 85.070312 31.539062 78.824219 31.539062 C 78.824219 38.195312 79.238281 44.417969 80.492188 50.664062 C 86.304688 81.84375 105.429688 108.449219 132.882812 124.257812 L 132.882812 101.382812 C 116.664062 89.324219 105.449219 71.867188 100.445312 51.898438 C 111.261719 52.726562 122.0625 54.804688 132.882812 56.886719 Z M 147 40.667969 "/>
<path style=" stroke:none;fill-rule:nonzero;fill:rgb(100%,34.901961%,0%);fill-opacity:1;" d="M 66.335938 124.648438 L 83.8125 104.699219 L 83.8125 83.492188 L 66.335938 83.492188 Z M 66.335938 124.648438 "/>
</g>
</svg>
