<?xml version="1.0" encoding="UTF-8"?>
<svg xmlns="http://www.w3.org/2000/svg" xmlns:xlink="http://www.w3.org/1999/xlink" width="150pt" height="150pt" viewBox="0 0 150 150" version="1.1">
<g id="surface1">
<path style=" stroke:none;fill-rule:nonzero;fill:rgb(7.058824%,13.72549%,24.313725%);fill-opacity:1;" d="M 75.28125 149.035156 C 75.28125 149.035156 48.550781 139.050781 33.65625 128.824219 C 11.191406 113.285156 10.304688 91.789062 10.304688 48.792969 L 10.304688 23.269531 L 75.28125 0.886719 L 140.257812 23.269531 L 140.257812 48.792969 C 140.257812 91.789062 139.371094 113.285156 116.828125 128.824219 C 102.011719 139.128906 75.28125 149.035156 75.28125 149.035156 Z M 75.28125 149.035156 "/>
<path style=" stroke:none;fill-rule:nonzero;fill:rgb(100%,100%,100%);fill-opacity:1;" d="M 35.105469 89.695312 C 31 91.707031 25.605469 94.042969 19.644531 96.214844 C 20.691406 100.804688 22.140625 104.832031 24.15625 108.535156 C 28.664062 105.714844 32.609375 102.816406 35.667969 100.402344 C 35.183594 96.617188 35.023438 93.074219 35.105469 89.695312 Z M 35.105469 89.695312 "/>
<path style=" stroke:none;fill-rule:nonzero;fill:rgb(100%,100%,100%);fill-opacity:1;" d="M 45.167969 56.199219 C 37.601562 53.140625 26.246094 47.746094 16.746094 40.578125 L 16.746094 51.046875 C 16.746094 52.980469 16.746094 54.910156 16.746094 56.761719 C 25.605469 60.144531 34.703125 62.238281 41.0625 63.285156 C 42.351562 60.789062 43.71875 58.453125 45.167969 56.199219 Z M 45.167969 56.199219 "/>
<path style=" stroke:none;fill-rule:nonzero;fill:rgb(100%,100%,100%);fill-opacity:1;" d="M 55.878906 44.203125 C 50.644531 38.808594 43.316406 30.273438 37.679688 20.851562 L 23.1875 25.84375 C 31.238281 35.992188 42.59375 44.847656 50.082031 49.839844 C 51.933594 47.746094 53.863281 45.894531 55.878906 44.203125 Z M 55.878906 44.203125 "/>
<path style=" stroke:none;fill-rule:nonzero;fill:rgb(100%,100%,100%);fill-opacity:1;" d="M 62.480469 39.210938 C 65.136719 37.519531 67.714844 36.152344 70.046875 35.105469 C 67.875 29.226562 65.296875 20.773438 63.6875 11.753906 L 50.804688 16.183594 C 54.347656 25.28125 58.9375 33.574219 62.480469 39.210938 Z M 62.480469 39.210938 "/>
<path style=" stroke:none;fill-rule:nonzero;fill:rgb(100%,100%,100%);fill-opacity:1;" d="M 38.003906 71.257812 C 32.449219 71.496094 24.878906 71.417969 16.988281 70.449219 C 17.148438 75.121094 17.3125 79.386719 17.714844 83.332031 C 24.71875 82.527344 31.160156 81.238281 35.992188 79.953125 C 36.472656 76.972656 37.117188 73.992188 38.003906 71.257812 Z M 38.003906 71.257812 "/>
<path style=" stroke:none;fill-rule:nonzero;fill:rgb(100%,100%,100%);fill-opacity:1;" d="M 37.761719 112.238281 C 36.152344 114.171875 34.21875 116.34375 32.046875 118.679688 C 33.734375 120.289062 35.667969 121.820312 37.84375 123.347656 C 39.128906 124.234375 40.578125 125.121094 42.027344 126.085938 C 40.257812 121.257812 38.808594 116.667969 37.761719 112.238281 Z M 37.761719 112.238281 "/>
<path style=" stroke:none;fill-rule:nonzero;fill:rgb(100%,100%,100%);fill-opacity:1;" d="M 99.597656 59.019531 C 100.886719 60.0625 104.265625 59.097656 104.265625 59.097656 L 101.851562 56.199219 L 96.617188 52.738281 C 96.617188 52.738281 98.308594 57.972656 99.597656 59.019531 Z M 99.597656 59.019531 "/>
<path style=" stroke:none;fill-rule:nonzero;fill:rgb(100%,100%,100%);fill-opacity:1;" d="M 116.667969 88.082031 L 113.527344 85.585938 L 115.296875 89.9375 L 120.371094 89.53125 Z M 116.667969 88.082031 "/>
<path style=" stroke:none;fill-rule:nonzero;fill:rgb(100%,100%,100%);fill-opacity:1;" d="M 78.984375 9.097656 C 76.8125 16.023438 76.167969 24.476562 78.582031 32.851562 L 78.503906 32.851562 C 78.503906 32.851562 78.582031 32.851562 78.582031 32.851562 C 79.46875 31.964844 86.152344 24.960938 92.109375 18.4375 C 92.109375 18.4375 100 27.457031 88.96875 36.796875 C 88.96875 36.796875 108.613281 50.5625 109.902344 51.128906 C 109.902344 51.128906 108.855469 55.394531 109.824219 59.019531 L 125.28125 88.96875 L 117.472656 98.148438 L 106.039062 91.707031 L 111.59375 100.5625 C 111.59375 100.5625 105.3125 101.367188 103.460938 100.402344 C 102.414062 94.765625 97.421875 85.75 97.421875 85.75 L 85.75 81 C 85.75 81 80.675781 74.71875 81 65.621094 C 81 65.621094 75.203125 89.453125 90.820312 95.410156 L 112.722656 123.269531 C 133.011719 109.257812 133.816406 89.773438 133.816406 50.964844 L 133.816406 28.019531 Z M 78.984375 9.097656 "/>
</g>
</svg>
