<?xml version="1.0" encoding="UTF-8"?>
<svg xmlns="http://www.w3.org/2000/svg" xmlns:xlink="http://www.w3.org/1999/xlink" width="150pt" height="150pt" viewBox="0 0 150 150" version="1.1">
<g id="surface1">
<path style=" stroke:none;fill-rule:nonzero;fill:rgb(69.411765%,9.019608%,22.352941%);fill-opacity:1;" d="M 8.25 30 L 9.75 30 C 15.75 30 27.375 34.875 43.5 44.625 C 51.75 50.25 56.625 52.875 57.75 52.875 L 58.125 52.875 L 69.375 50.25 L 76.875 49.5 C 82.125 49.5 88.125 50.625 94.5 52.875 L 95.25 52.875 C 101.625 51.375 107.625 50.625 113.25 50.625 C 124.875 50.625 136.125 53.25 147.375 58.5 C 149.25 59.625 150 60.75 150 61.875 C 150 62.625 149.25 63.375 148.125 63.75 C 147 64.5 146.25 64.875 145.875 64.875 L 134.625 64.875 C 121.125 64.875 109.5 69 99.375 77.625 C 93.75 83.25 90.75 88.125 90.75 91.875 C 90.75 95.25 93.375 97.875 99 99 C 100.5 99.375 103.125 99.375 107.25 99.75 C 109.5 99.75 114.375 99.375 121.875 98.625 L 122.625 98.625 C 123 98.625 123.75 99 124.5 99.75 C 126 99.75 126.75 100.5 127.125 102 L 127.125 102.375 C 127.125 105.375 117.75 108.375 98.625 110.625 C 95.625 111 92.25 111 88.125 111.375 C 76.125 111.375 67.125 109.125 61.125 104.25 C 54.75 100.125 51 95.625 49.125 90.75 L 49.125 88.875 C 49.125 87.375 50.25 86.625 52.125 86.625 L 57 87.375 C 60 87.375 61.875 85.875 63 82.5 L 63.375 80.25 L 63.375 79.125 C 63.375 72.75 57.75 64.5 46.875 54.375 C 40.875 49.125 35.25 45 30.375 42 C 20.25 36 13.125 33 9 33 C 4.875 33.375 3 35.25 3 38.625 C 3 42 6 47.25 11.625 54.375 L 25.125 68.625 C 21.375 65.625 16.125 60.75 9.75 54.375 C 3 48.375 0 42.75 0 37.5 C 0 33 2.625 30.375 8.25 30 Z M 73.5 59.25 C 73.5 61.875 76.125 63.75 81.375 64.5 L 84.375 64.5 C 88.5 64.5 91.875 63.75 94.5 61.875 L 94.875 60.75 L 94.875 60.375 C 94.875 58.125 91.125 56.25 83.25 55.125 L 79.5 54.75 C 76.125 54.75 73.875 55.875 73.5 58.125 Z M 31.875 71.625 C 36 71.625 39.375 73.5 42 77.625 C 42.75 78.75 43.125 79.875 43.125 81 L 43.125 81.375 C 43.125 83.25 41.625 84.375 38.625 84.75 C 34.875 84.75 31.875 82.875 28.875 79.125 C 28.125 78 27.75 76.875 27.75 76.125 L 27.75 75 C 27.75 73.125 29.25 72 31.875 71.625 Z M 31.875 71.625 "/>
</g>
</svg>
