<?xml version="1.0" encoding="UTF-8"?>
<svg xmlns="http://www.w3.org/2000/svg" xmlns:xlink="http://www.w3.org/1999/xlink" width="150pt" height="150pt" viewBox="0 0 150 150" version="1.1">
<g id="surface1">
<path style=" stroke:none;fill-rule:nonzero;fill:rgb(0%,0%,0%);fill-opacity:1;" d="M 145.6875 19.371094 C 148.230469 21.472656 148.574219 24.566406 148.597656 27.070312 C 148.605469 27.742188 148.605469 28.304688 148.597656 28.871094 C 148.585938 31.628906 148.597656 39.226562 148.597656 39.226562 L 148.597656 59.253906 C 148.597656 59.253906 148.617188 68.4375 148.597656 71.773438 C 148.601562 73.351562 148.609375 74.90625 148.601562 76.808594 C 148.585938 79.511719 148.167969 82.230469 146.953125 84.449219 C 145.410156 87.328125 142.515625 89.191406 139.5 90.246094 C 96.953125 104.722656 58.160156 118.15625 15.613281 132.636719 C 13.625 133.378906 11.652344 133.832031 9.304688 133.390625 C 7.425781 132.992188 5.726562 132.109375 4.546875 130.699219 C 1.914062 127.761719 1.511719 125.027344 1.445312 121.96875 C 1.433594 119.769531 1.445312 113.566406 1.445312 113.566406 L 1.449219 103.519531 L 1.445312 84.207031 C 1.445312 84.207031 1.449219 79.1875 1.449219 76.640625 C 1.414062 73.265625 1.496094 68.636719 3.449219 65.847656 C 5.367188 63.0625 8.664062 61.210938 11.828125 60.105469 C 54.695312 46.09375 84.574219 34.667969 127.445312 20.660156 C 131.21875 19.480469 130.601562 19.671875 132.675781 18.976562 C 137.601562 17.320312 141.019531 15.574219 145.6875 19.371094 Z M 145.6875 19.371094 "/>
<path style=" stroke:none;fill-rule:nonzero;fill:rgb(100%,100%,100%);fill-opacity:1;" d="M 11.152344 134.625 C 10.5 134.625 9.824219 134.566406 9.105469 134.433594 C 6.855469 133.957031 5.007812 132.898438 3.734375 131.378906 C 0.761719 128.0625 0.449219 124.921875 0.382812 121.992188 C 0.375 119.769531 0.382812 113.5625 0.382812 113.5625 L 0.386719 103.519531 L 0.382812 84.207031 C 0.382812 84.203125 0.386719 79.1875 0.386719 76.640625 C 0.34375 72.417969 0.578125 68.101562 2.578125 65.238281 C 4.847656 61.945312 8.671875 60.085938 11.476562 59.105469 C 32.886719 52.105469 51.347656 45.652344 69.199219 39.410156 C 87.113281 33.144531 105.636719 26.667969 127.113281 19.652344 C 130.328125 18.648438 130.351562 18.640625 131.566406 18.230469 L 132.335938 17.96875 C 132.792969 17.816406 133.234375 17.664062 133.667969 17.511719 C 137.957031 16.019531 141.664062 14.730469 146.355469 18.546875 L 146.359375 18.554688 C 149.230469 20.921875 149.632812 24.339844 149.660156 27.054688 C 149.667969 27.734375 149.667969 28.304688 149.660156 28.878906 C 149.644531 31.597656 149.660156 39.144531 149.660156 39.222656 L 149.660156 59.25 C 149.660156 59.34375 149.679688 68.476562 149.660156 71.78125 L 149.664062 72.746094 C 149.667969 74.007812 149.671875 75.300781 149.660156 76.8125 C 149.640625 80.09375 149.042969 82.832031 147.882812 84.957031 C 145.988281 88.496094 142.46875 90.332031 139.851562 91.25 C 118.515625 98.507812 97.785156 105.621094 77.742188 112.5 C 57.796875 119.34375 37.171875 126.421875 15.953125 133.640625 C 14.605469 134.144531 13.011719 134.625 11.152344 134.625 Z M 139.980469 18.164062 C 138.257812 18.164062 136.5 18.777344 134.363281 19.519531 C 133.921875 19.671875 133.472656 19.828125 133.011719 19.984375 L 132.242188 20.242188 C 131.027344 20.652344 130.980469 20.667969 127.757812 21.675781 C 106.3125 28.679688 87.800781 35.15625 69.902344 41.414062 C 52.039062 47.660156 33.566406 54.117188 12.15625 61.117188 C 9.667969 61.984375 6.273438 63.621094 4.324219 66.449219 C 2.433594 69.15625 2.484375 74.203125 2.511719 76.632812 C 2.511719 79.1875 2.507812 84.207031 2.507812 84.207031 L 2.511719 103.519531 L 2.507812 113.566406 C 2.507812 113.566406 2.496094 119.765625 2.507812 121.964844 C 2.578125 125.117188 3.0625 127.449219 5.34375 129.988281 C 6.328125 131.167969 7.769531 131.976562 9.527344 132.347656 C 11.753906 132.769531 13.59375 132.257812 15.242188 131.640625 C 36.492188 124.40625 57.113281 117.332031 77.058594 110.488281 C 97.105469 103.609375 117.832031 96.496094 139.164062 89.238281 C 141.414062 88.449219 144.441406 86.886719 146.019531 83.945312 C 147.015625 82.125 147.527344 79.722656 147.542969 76.796875 C 147.550781 75.289062 147.550781 74.003906 147.546875 72.75 L 147.542969 71.773438 C 147.5625 68.46875 147.542969 59.34375 147.542969 59.25 L 147.542969 39.222656 C 147.542969 39.148438 147.527344 31.59375 147.542969 28.863281 C 147.550781 28.300781 147.550781 27.742188 147.542969 27.078125 C 147.519531 24.683594 147.199219 21.992188 145.019531 20.191406 C 143.1875 18.707031 141.601562 18.164062 139.980469 18.164062 Z M 139.980469 18.164062 "/>
<path style=" stroke:none;fill-rule:nonzero;fill:rgb(100%,93.72549%,0%);fill-opacity:1;" d="M 119.40625 32.601562 C 126.492188 30.175781 132.75 28.070312 139.832031 25.65625 C 140.125 25.558594 140.230469 25.667969 140.230469 25.886719 C 140.230469 26.175781 140.230469 27.203125 140.230469 27.203125 L 140.230469 51.117188 C 140.230469 51.117188 140.25 60.832031 140.230469 64.921875 C 140.199219 72.144531 140.230469 77.21875 140.230469 77.21875 C 140.230469 77.21875 140.25 80.441406 140.242188 82.050781 C 140.242188 82.164062 140.144531 82.234375 140.046875 82.257812 C 133.265625 84.550781 126.488281 86.847656 119.710938 89.136719 C 119.5625 89.21875 119.386719 89.097656 119.40625 88.933594 C 119.378906 85.246094 119.402344 77.875 119.402344 77.875 L 119.402344 35.210938 C 119.402344 35.210938 119.410156 33.296875 119.40625 32.601562 Z M 119.40625 32.601562 "/>
<path style=" stroke:none;fill-rule:nonzero;fill:rgb(100%,93.72549%,0%);fill-opacity:1;" d="M 115.871094 33.652344 C 116.132812 33.582031 116.484375 33.777344 116.484375 34.042969 C 116.503906 36.085938 116.484375 40.664062 116.484375 40.664062 L 116.484375 77.632812 C 116.484375 77.632812 116.417969 81.367188 116.484375 84.046875 C 116.507812 84.863281 116.503906 85.683594 116.507812 86.308594 C 116.539062 86.515625 116.25 86.609375 116.160156 86.425781 C 109.285156 77.578125 102.40625 68.726562 95.53125 59.878906 C 95.421875 59.714844 95.230469 59.578125 95.222656 59.363281 C 95.21875 53.15625 95.207031 47 95.21875 40.792969 C 95.21875 40.703125 95.269531 40.617188 95.335938 40.585938 C 102.152344 38.277344 109.058594 35.957031 115.871094 33.652344 Z M 115.871094 33.652344 "/>
<path style=" stroke:none;fill-rule:nonzero;fill:rgb(100%,93.72549%,0%);fill-opacity:1;" d="M 72.261719 48.527344 C 75.304688 47.515625 77.746094 46.691406 80.789062 45.679688 C 81.027344 45.578125 81.136719 45.859375 81.265625 46.003906 C 92.632812 60.640625 104.007812 75.277344 115.378906 89.910156 C 115.496094 90.082031 115.722656 90.238281 115.640625 90.472656 C 108.785156 92.824219 101.914062 95.140625 95.058594 97.484375 C 94.957031 97.527344 94.835938 97.523438 94.777344 97.421875 C 92.777344 94.78125 90.792969 92.132812 88.789062 89.496094 C 83.277344 91.367188 77.765625 93.238281 72.25 95.109375 C 72.101562 95.183594 71.941406 95.046875 71.96875 94.894531 C 71.9375 91.351562 71.988281 87.90625 71.953125 84.363281 C 71.96875 84.082031 72.011719 83.988281 72.339844 83.875 C 75.683594 82.707031 78.671875 81.679688 82.019531 80.511719 C 78.597656 75.960938 75.609375 71.960938 72.1875 67.414062 C 71.921875 67.019531 71.96875 67.023438 71.96875 66.933594 C 71.964844 66.675781 71.96875 65.8125 71.96875 65.8125 L 71.96875 57.777344 C 71.96875 57.777344 71.960938 56.019531 71.96875 55.148438 C 71.984375 53.363281 71.957031 51.984375 71.96875 50.183594 C 71.972656 49.855469 71.964844 49.347656 71.972656 48.988281 C 71.96875 48.582031 72.046875 48.597656 72.261719 48.527344 Z M 72.261719 48.527344 "/>
<path style=" stroke:none;fill-rule:nonzero;fill:rgb(100%,93.72549%,0%);fill-opacity:1;" d="M 68.503906 49.871094 C 69.011719 49.699219 69.355469 49.949219 69.355469 50.324219 C 69.355469 52.242188 69.355469 55.125 69.355469 55.125 C 69.355469 55.125 69.335938 59.46875 69.355469 65.671875 C 69.363281 68.351562 69.347656 74.765625 69.347656 74.765625 C 69.347656 74.765625 69.351562 76.785156 69.355469 77.800781 C 69.375 81.8125 69.359375 90.074219 69.359375 90.074219 C 69.359375 90.074219 69.339844 93.546875 69.355469 95.226562 C 69.386719 98.015625 69.367188 100.453125 69.355469 102.835938 C 69.359375 103.03125 69.066406 103.066406 68.988281 102.898438 C 62.257812 94.300781 55.441406 85.640625 48.726562 77.027344 C 48.722656 76.53125 48.726562 75.367188 48.726562 75.367188 L 48.734375 69.421875 C 48.734375 69.421875 48.726562 65.246094 48.726562 63.214844 C 48.726562 62.183594 48.734375 59.53125 48.734375 59.53125 L 48.738281 58.710938 C 48.738281 58.710938 48.734375 57.695312 48.726562 57.246094 C 48.726562 56.652344 48.761719 56.59375 48.988281 56.472656 C 55.671875 54.207031 61.816406 52.132812 68.503906 49.871094 Z M 68.503906 49.871094 "/>
<path style=" stroke:none;fill-rule:nonzero;fill:rgb(100%,93.72549%,0%);fill-opacity:1;" d="M 30.828125 62.765625 C 30.96875 62.699219 31.148438 62.8125 31.125 62.988281 C 31.046875 81.605469 31.195312 99.839844 31.125 118.457031 C 31.117188 118.699219 31.238281 119.300781 30.769531 119.433594 C 23.945312 121.742188 17.300781 123.984375 10.480469 126.296875 C 10 126.457031 10 126.113281 10 125.945312 C 9.988281 124.621094 10 121.996094 10 121.996094 L 10 82.03125 L 10.007812 72.238281 C 10.007812 72.238281 10.003906 70.847656 10 70.3125 C 10 69.902344 10.140625 69.796875 10.40625 69.679688 C 17.453125 67.292969 23.78125 65.148438 30.828125 62.765625 Z M 30.828125 62.765625 "/>
<path style=" stroke:none;fill-rule:nonzero;fill:rgb(100%,93.72549%,0%);fill-opacity:1;" d="M 33.925781 63.199219 C 34.03125 63.136719 34.164062 63.167969 34.230469 63.273438 C 45.492188 77.640625 56.878906 92.015625 68.140625 106.378906 C 68.277344 106.492188 68.222656 106.710938 68.046875 106.734375 C 61.246094 109.042969 54.441406 111.34375 47.636719 113.644531 C 47.421875 113.753906 47.304688 113.496094 47.195312 113.359375 C 42.828125 107.671875 38.457031 101.980469 34.089844 96.289062 C 34 96.160156 33.855469 96.046875 33.863281 95.882812 C 33.898438 85.046875 33.839844 74.21875 33.863281 63.386719 C 33.863281 63.320312 33.878906 63.25 33.925781 63.199219 Z M 33.925781 63.199219 "/>
</g>
</svg>
