<?xml version="1.0" encoding="UTF-8"?>
<svg xmlns="http://www.w3.org/2000/svg" xmlns:xlink="http://www.w3.org/1999/xlink" width="150pt" height="150pt" viewBox="0 0 150 150" version="1.1">
<g id="surface1">
<path style=" stroke:none;fill-rule:nonzero;fill:rgb(0%,0%,0%);fill-opacity:1;" d="M 129.761719 19.578125 C 125.527344 10.316406 118.253906 2.511719 111.375 0 C 108.730469 7.273438 89.417969 61.90625 89.417969 61.90625 L 75.265625 39.019531 L 60.582031 62.167969 C 60.582031 62.167969 41.402344 7.539062 38.625 0.265625 C 31.746094 2.777344 24.472656 10.582031 20.238281 19.839844 C 15.078125 31.21875 15.078125 43.519531 19.972656 54.628906 C 23.808594 63.09375 25.398438 66.929688 26.453125 69.3125 L 20.503906 69.3125 L 22.617188 89.550781 L 38.492188 98.015625 L 34.65625 102.777344 L 35.054688 125.265625 L 42.460938 125.265625 L 45.105469 109.390625 L 49.339844 107.144531 L 75.265625 150.132812 L 100.660156 106.878906 L 104.894531 109.128906 L 107.539062 125 L 114.945312 125 L 115.34375 102.511719 L 111.507812 97.75 L 127.382812 89.285156 L 129.496094 69.046875 L 123.546875 69.046875 C 123.546875 69.046875 126.191406 62.964844 130.027344 54.496094 C 134.921875 43.253906 134.789062 30.953125 129.761719 19.578125 Z M 129.761719 19.578125 "/>
<path style=" stroke:none;fill-rule:nonzero;fill:rgb(100%,100%,100%);fill-opacity:1;" d="M 58.863281 67.59375 C 58.863281 67.59375 42.460938 22.089844 37.167969 5.820312 C 24.734375 9.128906 12.566406 34.65625 23.941406 56.085938 C 29.363281 66.402344 44.972656 92.328125 44.972656 92.328125 Z M 58.863281 67.59375 "/>
<path style=" stroke:none;fill-rule:nonzero;fill:rgb(100%,100%,100%);fill-opacity:1;" d="M 91.402344 67.59375 C 91.402344 67.59375 107.804688 22.089844 113.09375 5.820312 C 125.660156 9.128906 137.832031 34.65625 126.453125 56.21875 C 121.03125 66.535156 105.421875 92.460938 105.421875 92.460938 Z M 91.402344 67.59375 "/>
<path style=" stroke:none;fill-rule:nonzero;fill:rgb(100%,100%,100%);fill-opacity:1;" d="M 35.449219 87.035156 L 29.894531 83.199219 L 26.191406 73.28125 L 23.546875 73.28125 L 24.867188 86.242188 L 41.269531 96.03125 Z M 35.449219 87.035156 "/>
<path style=" stroke:none;fill-rule:nonzero;fill:rgb(100%,100%,100%);fill-opacity:1;" d="M 120.636719 83.199219 L 113.09375 86.375 L 107.273438 95.503906 L 125.660156 86.242188 L 126.984375 73.28125 L 124.339844 73.28125 Z M 120.636719 83.199219 "/>
<path style=" stroke:none;fill-rule:nonzero;fill:rgb(100%,100%,100%);fill-opacity:1;" d="M 75.265625 113.757812 L 58.996094 109.65625 L 57.40625 113.09375 L 75.265625 143.519531 L 92.988281 113.09375 L 91.402344 109.65625 Z M 75.265625 113.757812 "/>
<path style=" stroke:none;fill-rule:nonzero;fill:rgb(100%,77.647059%,16.078431%);fill-opacity:1;" d="M 87.433594 67.0625 C 83.199219 58.996094 75.265625 47.488281 75.265625 47.355469 C 75.265625 47.355469 67.195312 58.863281 63.09375 67.0625 L 75.265625 86.507812 Z M 87.433594 67.0625 "/>
<path style=" stroke:none;fill-rule:nonzero;fill:rgb(100%,77.647059%,16.078431%);fill-opacity:1;" d="M 100.792969 93.386719 C 97.617188 88.359375 93.519531 81.480469 89.417969 73.148438 L 75.265625 97.488281 L 61.109375 73.28125 C 57.011719 81.480469 52.910156 88.359375 49.734375 93.519531 L 38.757812 102.382812 L 37.433594 123.148438 L 40.078125 123.148438 L 43.78125 105.554688 L 48.941406 103.4375 L 75.265625 107.011719 L 101.585938 103.4375 L 106.746094 105.554688 L 110.449219 123.015625 L 113.09375 123.015625 L 111.773438 102.25 Z M 100.792969 93.386719 "/>
</g>
</svg>
